<svg width="512" height="512" viewBox="0 0 512 512" fill="none" xmlns="http://www.w3.org/2000/svg">
<rect width="512" height="512" rx="96" fill="url(#paint0_linear_2097_7)"/>
<path fill-rule="evenodd" clip-rule="evenodd" d="M275.146 237.779C318.149 280.537 342.308 338.529 342.308 398.998H399.636C399.636 323.411 369.437 250.921 315.682 197.474C261.927 144.026 189.02 114 113 114V171C173.816 171 232.142 195.021 275.146 237.779ZM302.999 399H247.31C247.31 363.582 233.159 329.615 207.971 304.571C182.783 279.528 148.621 265.458 113 265.458V210.087C137.951 210.087 162.658 214.973 185.71 224.467C208.761 233.961 229.707 247.876 247.35 265.418C264.993 282.96 278.988 303.786 288.536 326.706C298.084 349.626 302.999 374.191 302.999 399ZM152.31 398.998C174.021 398.998 191.62 381.499 191.62 359.913C191.62 338.327 174.021 320.828 152.31 320.828C130.6 320.828 113 338.327 113 359.913C113 381.499 130.6 398.998 152.31 398.998Z" fill="white"/>
<defs>
<linearGradient id="paint0_linear_2097_7" x1="43.52" y1="43.52" x2="468.48" y2="468.48" gradientUnits="userSpaceOnUse">
<stop stop-color="#63AFFF"/>
<stop offset="0.5" stop-color="#007DFF"/>
<stop offset="1" stop-color="#005DBE"/>
</linearGradient>
</defs>
</svg>
